# xmcd
#
# Track frame offsets:
#	150
#	6337
#	26057
#	41355
#	79250
#	99035
#	125860
#	158142
#	175722
#	196172
#	213680
#	233895
#	253090
#
# Disc length: 3565 seconds
#
# Revision: 0
# Processed by: cddbd v1.5.2PL0 Copyright (c) Steve Scherf et al.
# Submitted via: dBpowerAMP V4.0
#
DISCID=a80deb0d
DTITLE=Bihlman Brothers - American Son
DYEAR=1900
DGENRE=Blues
TTITLE0=Cominada a una boda
TTITLE1=American Son
TTITLE2=You Got Me
TTITLE3=Dream
TTITLE4=Bad Axe
TTITLE5=Misery
TTITLE6=Hold Out Your Hand
TTITLE7=Rusty Chain
TTITLE8=Blue Skies
TTITLE9=Folsom Prison Blues
TTITLE10=Sugarman
TTITLE11=The Cowboy Song
TTITLE12=Soul Vitamin
EXTD=Phil Mc
EXTT0=
EXTT1=
EXTT2=
EXTT3=
EXTT4=
EXTT5=
EXTT6=
EXTT7=
EXTT8=
EXTT9=
EXTT10=
EXTT11=
EXTT12=
PLAYORDER=
